<?xml version="1.0" standalone="no"?>
<!DOCTYPE svg PUBLIC "-//W3C//DTD SVG 20010904//EN"
 "http://www.w3.org/TR/2001/REC-SVG-20010904/DTD/svg10.dtd">
<svg version="1.0" xmlns="http://www.w3.org/2000/svg"
 width="1080.000000pt" height="1080.000000pt" viewBox="0 0 1080.000000 1080.000000"
 preserveAspectRatio="xMidYMid meet">

<g transform="translate(0.000000,1080.000000) scale(0.100000,-0.100000)"
fill="#000000" stroke="none">
<path d="M0 5400 l0 -5400 5400 0 5400 0 0 5400 0 5400 -5400 0 -5400 0 0
-5400z m3645 2440 c695 -66 1269 -531 1484 -1204 64 -200 92 -466 72 -681 -29
-302 -121 -562 -288 -815 -104 -157 -303 -357 -457 -459 -527 -350 -1191 -394
-1745 -116 -567 284 -912 818 -946 1465 -37 694 342 1344 960 1645 139 68 221
96 367 129 191 43 360 54 553 36z m3840 0 c695 -66 1269 -531 1484 -1204 64
-200 92 -466 72 -681 -29 -302 -121 -562 -288 -815 -104 -157 -303 -357 -457
-459 -527 -350 -1191 -394 -1745 -116 -567 284 -912 818 -946 1465 -37 694
342 1344 960 1645 139 68 221 96 367 129 191 43 360 54 553 36z m-3061 -4320
c13 -173 78 -364 173 -507 83 -127 243 -268 378 -335 252 -126 580 -129 832
-9 113 55 196 112 279 195 176 176 269 390 300 689 l5 57 370 0 369 0 0 -27
c0 -140 -48 -411 -97 -548 -90 -249 -219 -453 -412 -646 -154 -154 -283 -246
-465 -334 -482 -231 -1052 -228 -1525 10 -559 280 -902 804 -946 1443 l-7 102
369 0 370 0 7 -90z"/>
<path d="M3369 7150 c-314 -37 -605 -243 -749 -530 -89 -177 -125 -351 -117
-555 12 -273 104 -497 285 -687 198 -208 452 -309 742 -295 137 7 244 33 357
86 362 174 576 523 576 941 0 304 -102 561 -302 761 -161 160 -346 251 -571
279 -93 11 -123 11 -221 0z"/>
<path d="M7209 7150 c-314 -37 -605 -243 -749 -530 -89 -177 -125 -351 -117
-555 12 -273 104 -497 285 -687 198 -208 452 -309 742 -295 137 7 244 33 357
86 362 174 576 523 576 941 0 304 -102 561 -302 761 -161 160 -346 251 -571
279 -93 11 -123 11 -221 0z"/>
</g>
</svg>
