<svg xmlns="http://www.w3.org/2000/svg" width="86.525" height="60.353" viewBox="0 0 86.525 60.353"><g transform="translate(-989.408 -6871.524)"><path d="M43.609,25.4h4.129V-34.952H43.573a4.477,4.477,0,0,0-2.262.574,13.163,13.163,0,0,0-2.37,1.867L24.581-19.083a1.118,1.118,0,0,1-.826.287H6.7V9.316H23.755a1.047,1.047,0,0,1,.826.323L38.942,23.211a9.334,9.334,0,0,0,2.316,1.669A5.407,5.407,0,0,0,43.609,25.4Z" transform="translate(982.707 6906.476)" fill="#1d8adc"/><path d="M6.921-5.446H4.753l.366-1.711H7.287ZM6.059-1.437H8.148l.431-2h2V-5.446H9.01l.366-1.711h2.037V-9.167H9.794l.418-1.933H8.122L7.7-9.167H5.537L5.954-11.1H3.865L3.447-9.167H1.136v2.011H3.029L2.664-5.446H.3v2.011H2.233l-.431,2H3.891l.431-2H6.49Z" transform="translate(1043.901 6894.32)" fill="#c7ccd8"/><path d="M3.825-.338h.84V-1.4c2.075-.092,3.2-1.339,3.2-2.758,0-2.035-1.8-2.416-3.2-2.81V-9a1.014,1.014,0,0,1,.67.919h2.4c-.118-1.668-1.274-2.587-3.073-2.731V-11.88h-.84v1.064C2.039-10.7.66-9.727.66-8.085c0,2.062,1.76,2.455,3.165,2.823v2.075A1.07,1.07,0,0,1,3.063-4.2H.673C.739-2.5,2.039-1.572,3.825-1.415ZM5.519-4.08a.937.937,0,0,1-.854.932V-5.013C5.177-4.816,5.519-4.553,5.519-4.08ZM3.037-8.19a.836.836,0,0,1,.788-.88v1.825C3.352-7.455,3.037-7.731,3.037-8.19Z" transform="translate(1039.937 6910.54)" fill="#c7ccd8"/><path d="M1.949-1.6H4.766l.388-9.3H1.561ZM5.368,1.585A1.835,1.835,0,0,0,3.406-.241,1.841,1.841,0,0,0,1.425,1.585,1.835,1.835,0,0,0,3.406,3.372,1.829,1.829,0,0,0,5.368,1.585Z" transform="translate(1053.89 6908.197)" fill="#c7ccd8"/><path d="M8.073-8.095C8.116-9.489,7.1-10.74,5.04-10.74c-2.013,0-3.148,1.15-3.148,2.573a2.638,2.638,0,0,0,.7,1.811A3.224,3.224,0,0,0,.54-3.38C.54-1.511,2.021-.289,4.364-.289A5.291,5.291,0,0,0,7.7-1.353l.934.906h2.861L9.065-2.833a11.248,11.248,0,0,0,.891-1.61l.69-1.251H8.188l-.532.906c-.058.144-.129.273-.187.4l-2.458-2.4a2.227,2.227,0,0,1-.805-1.394A.735.735,0,0,1,5.011-8.9a.705.705,0,0,1,.748.805ZM4.479-2.273c-.978,0-1.567-.575-1.567-1.279A1.641,1.641,0,0,1,3.947-4.99L6.19-2.819A2.8,2.8,0,0,1,4.479-2.273Z" transform="translate(1045.304 6924.424)" fill="#c7ccd8"/><path d="M.465-8A2.525,2.525,0,0,0,3.16-5.27,2.512,2.512,0,0,0,5.84-8,2.512,2.512,0,0,0,3.16-10.725,2.525,2.525,0,0,0,.465-8ZM3.144-9.111c.484,0,.791.339.791,1.114,0,.759-.307,1.1-.791,1.1S2.37-7.239,2.37-8C2.37-8.772,2.66-9.111,3.144-9.111ZM2.547.815H5.21l6.214-11.362H8.761Zm5.6-2.55A2.512,2.512,0,0,0,10.827.992a2.512,2.512,0,0,0,2.679-2.728,2.5,2.5,0,0,0-2.679-2.728A2.5,2.5,0,0,0,8.148-1.735Zm2.663-1.114c.484,0,.791.355.791,1.114s-.307,1.1-.791,1.1-.775-.339-.775-1.1S10.327-2.849,10.811-2.849Z" transform="translate(1062.427 6902.158)" fill="#c7ccd8"/></g></svg>