<svg xmlns="http://www.w3.org/2000/svg" xmlns:xlink="http://www.w3.org/1999/xlink" width="88.843" height="67.163" viewBox="0 0 88.843 67.163"><defs><clipPath id="a"><rect width="12" height="28" transform="translate(126 6350)" fill="#c99797" opacity="0.8"/></clipPath></defs><g transform="translate(-126 -6310.837)"><path d="M-9.119,2.637H11.843V.85a5.881,5.881,0,0,0-.806-2.82A9.85,9.85,0,0,0,8.708-4.731a12.45,12.45,0,0,0-3.669-2.1A13.542,13.542,0,0,0,.212-7.646a13.586,13.586,0,0,0-4.841.813,12.346,12.346,0,0,0-3.662,2.1A9.9,9.9,0,0,0-10.613-1.97,5.881,5.881,0,0,0-11.418.85V2.637ZM.227-10.122a4.951,4.951,0,0,0,2.732-.806,5.972,5.972,0,0,0,2.014-2.19,6.348,6.348,0,0,0,.762-3.113,6.013,6.013,0,0,0-.762-3.025,5.888,5.888,0,0,0-2.014-2.124,5.052,5.052,0,0,0-2.732-.784,5.054,5.054,0,0,0-2.739.791,5.893,5.893,0,0,0-2.021,2.146A5.955,5.955,0,0,0-5.281-16.2a6.337,6.337,0,0,0,.754,3.083,5.913,5.913,0,0,0,2.007,2.19A4.975,4.975,0,0,0,.227-10.122Z" transform="translate(139 6333)" fill="#1d8adc"/><path d="M-9.119,2.637H11.843V.85a5.881,5.881,0,0,0-.806-2.82A9.85,9.85,0,0,0,8.708-4.731a12.45,12.45,0,0,0-3.669-2.1A13.542,13.542,0,0,0,.212-7.646a13.586,13.586,0,0,0-4.841.813,12.346,12.346,0,0,0-3.662,2.1A9.9,9.9,0,0,0-10.613-1.97,5.881,5.881,0,0,0-11.418.85V2.637ZM.227-10.122a4.951,4.951,0,0,0,2.732-.806,5.972,5.972,0,0,0,2.014-2.19,6.348,6.348,0,0,0,.762-3.113,6.013,6.013,0,0,0-.762-3.025,5.888,5.888,0,0,0-2.014-2.124,5.052,5.052,0,0,0-2.732-.784,5.054,5.054,0,0,0-2.739.791,5.893,5.893,0,0,0-2.021,2.146A5.955,5.955,0,0,0-5.281-16.2a6.337,6.337,0,0,0,.754,3.083,5.913,5.913,0,0,0,2.007,2.19A4.975,4.975,0,0,0,.227-10.122Z" transform="translate(171 6333)" fill="#1d8adc"/><path d="M-9.119,2.637H11.843V.85a5.881,5.881,0,0,0-.806-2.82A9.85,9.85,0,0,0,8.708-4.731a12.45,12.45,0,0,0-3.669-2.1A13.542,13.542,0,0,0,.212-7.646a13.586,13.586,0,0,0-4.841.813,12.346,12.346,0,0,0-3.662,2.1A9.9,9.9,0,0,0-10.613-1.97,5.881,5.881,0,0,0-11.418.85V2.637ZM.227-10.122a4.951,4.951,0,0,0,2.732-.806,5.972,5.972,0,0,0,2.014-2.19,6.348,6.348,0,0,0,.762-3.113,6.013,6.013,0,0,0-.762-3.025,5.888,5.888,0,0,0-2.014-2.124,5.052,5.052,0,0,0-2.732-.784,5.054,5.054,0,0,0-2.739.791,5.893,5.893,0,0,0-2.021,2.146A5.955,5.955,0,0,0-5.281-16.2a6.337,6.337,0,0,0,.754,3.083,5.913,5.913,0,0,0,2.007,2.19A4.975,4.975,0,0,0,.227-10.122Z" transform="translate(138 6373.264)" fill="#c2c7d0"/><path d="M-9.119,2.637H11.843V.85a5.881,5.881,0,0,0-.806-2.82A9.85,9.85,0,0,0,8.708-4.731a12.45,12.45,0,0,0-3.669-2.1A13.542,13.542,0,0,0,.212-7.646a13.586,13.586,0,0,0-4.841.813,12.346,12.346,0,0,0-3.662,2.1A9.9,9.9,0,0,0-10.613-1.97,5.881,5.881,0,0,0-11.418.85V2.637ZM.227-10.122a4.951,4.951,0,0,0,2.732-.806,5.972,5.972,0,0,0,2.014-2.19,6.348,6.348,0,0,0,.762-3.113,6.013,6.013,0,0,0-.762-3.025,5.888,5.888,0,0,0-2.014-2.124,5.052,5.052,0,0,0-2.732-.784,5.054,5.054,0,0,0-2.739.791,5.893,5.893,0,0,0-2.021,2.146A5.955,5.955,0,0,0-5.281-16.2a6.337,6.337,0,0,0,.754,3.083,5.913,5.913,0,0,0,2.007,2.19A4.975,4.975,0,0,0,.227-10.122Z" transform="translate(203 6333)" fill="#1d8adc"/><path d="M-9.119,2.637H11.843V.85a5.881,5.881,0,0,0-.806-2.82A9.85,9.85,0,0,0,8.708-4.731a12.45,12.45,0,0,0-3.669-2.1A13.542,13.542,0,0,0,.212-7.646a13.586,13.586,0,0,0-4.841.813,12.346,12.346,0,0,0-3.662,2.1A9.9,9.9,0,0,0-10.613-1.97,5.881,5.881,0,0,0-11.418.85V2.637ZM.227-10.122a4.951,4.951,0,0,0,2.732-.806,5.972,5.972,0,0,0,2.014-2.19,6.348,6.348,0,0,0,.762-3.113,6.013,6.013,0,0,0-.762-3.025,5.888,5.888,0,0,0-2.014-2.124,5.052,5.052,0,0,0-2.732-.784,5.054,5.054,0,0,0-2.739.791,5.893,5.893,0,0,0-2.021,2.146A5.955,5.955,0,0,0-5.281-16.2a6.337,6.337,0,0,0,.754,3.083,5.913,5.913,0,0,0,2.007,2.19A4.975,4.975,0,0,0,.227-10.122Z" transform="translate(171 6373.264)" fill="#c2c7d0"/><g clip-path="url(#a)"><path d="M-9.119,2.637H11.843V.85a5.881,5.881,0,0,0-.806-2.82A9.85,9.85,0,0,0,8.708-4.731a12.45,12.45,0,0,0-3.669-2.1A13.542,13.542,0,0,0,.212-7.646a13.586,13.586,0,0,0-4.841.813,12.346,12.346,0,0,0-3.662,2.1A9.9,9.9,0,0,0-10.613-1.97,5.881,5.881,0,0,0-11.418.85V2.637ZM.227-10.122a4.951,4.951,0,0,0,2.732-.806,5.972,5.972,0,0,0,2.014-2.19,6.348,6.348,0,0,0,.762-3.113,6.013,6.013,0,0,0-.762-3.025,5.888,5.888,0,0,0-2.014-2.124,5.052,5.052,0,0,0-2.732-.784,5.054,5.054,0,0,0-2.739.791,5.893,5.893,0,0,0-2.021,2.146A5.955,5.955,0,0,0-5.281-16.2a6.337,6.337,0,0,0,.754,3.083,5.913,5.913,0,0,0,2.007,2.19A4.975,4.975,0,0,0,.227-10.122Z" transform="translate(138 6373.264)" fill="#1d8adc"/></g></g></svg>