<svg xmlns="http://www.w3.org/2000/svg" width="116.181" height="32.929" viewBox="0 0 116.181 32.929">
  <g id="Group_1852" data-name="Group 1852" transform="translate(-7753.44 -4512.401)">
    <path id="Path_27" data-name="Path 27" d="M7297.994,2900.828l.725-1.056a.667.667,0,0,1,.958-.153,4.338,4.338,0,0,0,2.743.978c.7,0,1.291-.3,1.291-.841q0-.538-.935-.888l-1.028-.343a13.7,13.7,0,0,1-1.464-.592,3.3,3.3,0,0,1-.7-5.53,4.626,4.626,0,0,1,3.085-1.013,6.233,6.233,0,0,1,3.592,1.069.665.665,0,0,1,.188.9l-.678,1.106a.666.666,0,0,1-.889.236,4.8,4.8,0,0,0-2.167-.6c-.794,0-1.23.327-1.23.748,0,.343.312.623.919.857l1.013.376c.577.2,1.028.377,1.325.5a3.151,3.151,0,0,1,2.2,3.022,3.32,3.32,0,0,1-1.247,2.648,5.027,5.027,0,0,1-3.318,1.028,6.089,6.089,0,0,1-4.284-1.585A.664.664,0,0,1,7297.994,2900.828Z" transform="translate(492.862 1625.961)" fill="#18222b"/>
    <path id="Path_28" data-name="Path 28" d="M7501.575,2945a3.335,3.335,0,0,1,1.043,2.664v4.8a.452.452,0,0,1-.452.452h-1.854a.452.452,0,0,1-.452-.452v-4.252c0-1.076-.607-1.62-1.433-1.62a1.56,1.56,0,0,0-1.6,1.714v4.159a.453.453,0,0,1-.453.452h-1.837a.452.452,0,0,1-.452-.452v-4.252a1.456,1.456,0,0,0-1.479-1.62,1.552,1.552,0,0,0-1.56,1.714v4.159a.452.452,0,0,1-.452.452h-1.837a.452.452,0,0,1-.452-.452v-7.7a.452.452,0,0,1,.452-.452h1.775a.452.452,0,0,1,.452.452v.746a3.015,3.015,0,0,1,2.665-1.448,2.5,2.5,0,0,1,2.088.939.45.45,0,0,0,.673.047,3.782,3.782,0,0,1,2.645-.985A3.619,3.619,0,0,1,7501.575,2945Z" transform="translate(312.68 1576.119)" fill="#18222b"/>
    <path id="Path_29" data-name="Path 29" d="M7783.108,2944.946h1.779a.4.4,0,0,1,.4.4v7.792a.4.4,0,0,1-.4.4h-1.779a.4.4,0,0,1-.4-.4v-.344a3.636,3.636,0,0,1-2.539.968,3.893,3.893,0,0,1-3.022-1.308,4.617,4.617,0,0,1-1.184-3.24,4.489,4.489,0,0,1,1.184-3.209,3.942,3.942,0,0,1,3.022-1.277,3.527,3.527,0,0,1,2.539,1v-.377a.4.4,0,0,1,.117-.286A.4.4,0,0,1,7783.108,2944.946Zm-1.012,2.882a1.928,1.928,0,0,0-1.417-.592,1.883,1.883,0,0,0-1.419.592,1.952,1.952,0,0,0-.561,1.4,1.983,1.983,0,0,0,3.4,1.433,1.953,1.953,0,0,0,.576-1.433A1.9,1.9,0,0,0,7782.1,2947.828Z" transform="translate(40.493 1575.49)" fill="#18222b"/>
    <path id="Path_30" data-name="Path 30" d="M7979.851,2952.786v-7.65a.474.474,0,0,1,.475-.474h1.685a.474.474,0,0,1,.474.474v.585a2.666,2.666,0,0,1,2.989-1.2.477.477,0,0,1,.347.5l-.141,1.691a.473.473,0,0,1-.562.426,3.194,3.194,0,0,0-.623-.062c-1.262,0-1.9.826-1.9,2.477v3.233a.474.474,0,0,1-.474.474h-1.792a.475.475,0,0,1-.477-.477Z" transform="translate(-152.431 1575.773)" fill="#18222b"/>
    <path id="Path_31" data-name="Path 31" d="M8106.6,2902.767a.452.452,0,0,1-.229.551,5.444,5.444,0,0,1-2.392.514c-2.134,0-3.193-1.183-3.193-3.55v-2.994h-.854a.454.454,0,0,1-.454-.454v-1.366a.454.454,0,0,1,.454-.454h.885v-2.6a.454.454,0,0,1,.454-.454h1.818a.454.454,0,0,1,.454.454v2.6h2.241a.454.454,0,0,1,.454.454v1.366a.454.454,0,0,1-.454.454h-2.241v2.664c0,.919.358,1.371,1.09,1.371a2.548,2.548,0,0,0,.914-.188.455.455,0,0,1,.6.279Z" transform="translate(-265.627 1625.421)" fill="#18222b"/>
    <path id="Path_32" data-name="Path 32" d="M7312.263,3174.87h1.822a.553.553,0,0,1,.553.554v10.406a.553.553,0,0,1-.553.553h-1.822a.553.553,0,0,1-.553-.553v-10.406A.553.553,0,0,1,7312.263,3174.87Z" transform="translate(479.772 1357.728)" fill="#18222b"/>
    <path id="Path_33" data-name="Path 33" d="M7399.43,3232.98v-7.536a.53.53,0,0,1,.53-.53h1.619a.53.53,0,0,1,.53.53v.669a3.006,3.006,0,0,1,2.7-1.433,3.305,3.305,0,0,1,2.352.919,3.483,3.483,0,0,1,.968,2.633v4.749a.53.53,0,0,1-.53.53h-1.7a.53.53,0,0,1-.53-.53v-4.019c0-1.122-.577-1.775-1.511-1.775a1.678,1.678,0,0,0-1.683,1.854v3.939a.531.531,0,0,1-.531.53h-1.681a.529.529,0,0,1-.533-.53Z" transform="translate(396.77 1310.597)" fill="#18222b"/>
    <path id="Path_34" data-name="Path 34" d="M7582.544,3231.26l.557-.84a.623.623,0,0,1,.872-.166,3.624,3.624,0,0,0,2.067.685c.608,0,.919-.187.919-.546,0-.2-.147-.35-.442-.473l-.054-.02c-.1-.031-.4-.124-.923-.3-.577-.2-.981-.343-1.183-.436a2.448,2.448,0,0,1-1.6-2.337,2.375,2.375,0,0,1,.968-1.963,4.025,4.025,0,0,1,2.586-.763,4.929,4.929,0,0,1,2.689.749.623.623,0,0,1,.193.869l-.531.811a.622.622,0,0,1-.813.207,3.36,3.36,0,0,0-1.586-.439c-.452,0-.779.219-.779.484s.265.484.779.623a11.348,11.348,0,0,1,2.025.748,2.234,2.234,0,0,1,1.464,2.181,2.545,2.545,0,0,1-1,2.072,4.21,4.21,0,0,1-2.7.794,5.368,5.368,0,0,1-3.373-1.1A.621.621,0,0,1,7582.544,3231.26Z" transform="translate(223.603 1311.146)" fill="#18222b"/>
    <path id="Path_35" data-name="Path 35" d="M7739.566,3229h2.034a.373.373,0,0,1,.373.373v4.5a1.33,1.33,0,0,0,.994,1.389,1.444,1.444,0,0,0,1.764-1.418v-4.47a.373.373,0,0,1,.373-.373h2a.383.383,0,0,1,.383.383v4.464c0,2.54-1.573,3.973-4.142,3.973s-4.128-1.433-4.128-3.973v-4.494a.351.351,0,0,1,.347-.357Z" transform="translate(75.257 1306.51)" fill="#18222b"/>
    <path id="Path_36" data-name="Path 36" d="M7921.339,3233v-7.5a.548.548,0,0,1,.547-.548h1.538a.548.548,0,0,1,.548.548v.511a2.664,2.664,0,0,1,2.929-1.211.544.544,0,0,1,.4.573l-.13,1.56a.542.542,0,0,1-.64.484,3.161,3.161,0,0,0-.551-.049c-1.262,0-1.9.826-1.9,2.477V3233a.547.547,0,0,1-.547.547h-1.646a.548.548,0,0,1-.548-.549Z" transform="translate(-97.067 1310.559)" fill="#18222b"/>
    <path id="Path_37" data-name="Path 37" d="M8044.358,3225.234h1.779a.4.4,0,0,1,.4.4v7.792a.4.4,0,0,1-.4.4h-1.779a.4.4,0,0,1-.4-.4v-.343a3.633,3.633,0,0,1-2.54.968,3.893,3.893,0,0,1-3.022-1.309,4.618,4.618,0,0,1-1.183-3.24,4.493,4.493,0,0,1,1.183-3.209,3.943,3.943,0,0,1,3.022-1.277,3.525,3.525,0,0,1,2.54,1v-.377a.4.4,0,0,1,.4-.406Zm-1.011,2.882a1.931,1.931,0,0,0-1.418-.592,1.884,1.884,0,0,0-1.418.592,1.951,1.951,0,0,0-.561,1.4,1.983,1.983,0,0,0,3.4,1.434,1.95,1.95,0,0,0,.577-1.434,1.9,1.9,0,0,0-.576-1.4Z" transform="translate(-206.706 1310.276)" fill="#18222b"/>
    <path id="Path_38" data-name="Path 38" d="M8241.1,3232.952v-7.536a.53.53,0,0,1,.532-.532h1.619a.531.531,0,0,1,.53.531v.669a3,3,0,0,1,2.7-1.434,3.309,3.309,0,0,1,2.353.919,3.486,3.486,0,0,1,.967,2.633v4.75a.529.529,0,0,1-.529.53h-1.7a.529.529,0,0,1-.529-.53v-4.019c0-1.122-.577-1.775-1.512-1.775a1.678,1.678,0,0,0-1.683,1.854v3.939a.53.53,0,0,1-.529.53h-1.685a.531.531,0,0,1-.532-.53Z" transform="translate(-399.629 1310.626)" fill="#18222b"/>
    <path id="Path_39" data-name="Path 39" d="M8425.4,3232.722a4.38,4.38,0,0,1-1.262-3.24,4.331,4.331,0,0,1,1.277-3.24,4.55,4.55,0,0,1,3.335-1.262,4.347,4.347,0,0,1,3.91,2.139.4.4,0,0,1-.164.553l-1.526.8a.405.405,0,0,1-.511-.116,1.974,1.974,0,0,0-1.646-.822,1.919,1.919,0,0,0-1.419.561,1.938,1.938,0,0,0-.544,1.386,1.9,1.9,0,0,0,1.931,1.978,2.07,2.07,0,0,0,1.652-.8.4.4,0,0,1,.529-.108l1.509.9a.408.408,0,0,1,.188.257.413.413,0,0,1-.057.312,4.579,4.579,0,0,1-3.9,1.958A4.5,4.5,0,0,1,8425.4,3232.722Z" transform="translate(-572.823 1310.314)" fill="#18222b"/>
    <path id="Path_40" data-name="Path 40" d="M8605.287,3230.471h-5.408a.031.031,0,0,0-.025.014.032.032,0,0,0,0,.029,1.985,1.985,0,0,0,2.088,1.313,4.527,4.527,0,0,0,2.165-.534.529.529,0,0,1,.705.2l.561.968a.52.52,0,0,1-.181.707,6.382,6.382,0,0,1-3.374.9,4.669,4.669,0,0,1-3.521-1.291,4.458,4.458,0,0,1-1.23-3.193,4.383,4.383,0,0,1,1.277-3.227,4.913,4.913,0,0,1,6.481-.138,4.1,4.1,0,0,1,1.245,3.146c0,.13,0,.26-.012.391A.765.765,0,0,1,8605.287,3230.471Zm-5.44-1.883h3.558a.031.031,0,0,0,.025-.013.034.034,0,0,0,.006-.029,1.742,1.742,0,0,0-1.779-1.283,1.768,1.768,0,0,0-1.839,1.281.031.031,0,0,0,0,.028.032.032,0,0,0,.024.013Z" transform="translate(-736.443 1310.229)" fill="#18222b"/>
    <path id="Path_41" data-name="Path 41" d="M6633.647,2810.417v18.131a3.756,3.756,0,0,1-4.492,3.682,52.19,52.19,0,0,0-20.224,0,3.756,3.756,0,0,1-4.492-3.682v-18.131a4.756,4.756,0,0,1,2.2-4.011l9.869-6.288a4.757,4.757,0,0,1,5.109,0l9.868,6.288a4.649,4.649,0,0,1,1.658,1.887h0A4.757,4.757,0,0,1,6633.647,2810.417Z" transform="translate(1149 1713.028)" fill="#cc4152"/>
    <circle id="Ellipse_5" data-name="Ellipse 5" cx="8.879" cy="8.879" r="8.879" transform="translate(7759.164 4521.492)" fill="#fff"/>
    <path id="Path_42" data-name="Path 42" d="M6795.672,3140.38a.758.758,0,0,0-.723.987,4.531,4.531,0,0,0,8.643,0,.758.758,0,0,0-.723-.987Z" transform="translate(968.771 1390.363)" fill="#cc4152"/>
    <path id="Path_43" data-name="Path 43" d="M6753.21,3159.24" transform="translate(1008.232 1372.517)" fill="#b00d0c"/>
  </g>
</svg>
