<svg id="Component_47_1" data-name="Component 47 – 1" xmlns="http://www.w3.org/2000/svg" width="20" height="20" viewBox="0 0 20 20">
  <path id="Path_1586" data-name="Path 1586" d="M20.039,20.043H17.078V15.4c0-1.107-.022-2.531-1.544-2.531-1.543,0-1.779,1.2-1.779,2.45v4.722H10.792V10.5h2.844v1.3h.039a3.124,3.124,0,0,1,2.809-1.541c3,0,3.556,1.976,3.556,4.546v5.239ZM7.448,9.194a1.72,1.72,0,1,1,1.72-1.719,1.718,1.718,0,0,1-1.72,1.719ZM8.932,20.043H5.962V10.5H8.933v9.543ZM21.522,3H4.477A1.457,1.457,0,0,0,3,4.441V21.559A1.458,1.458,0,0,0,4.476,23H21.518A1.464,1.464,0,0,0,23,21.559V4.441A1.464,1.464,0,0,0,21.518,3h0Z" transform="translate(-3 -3)" fill="#8b919b"/>
</svg>
