<svg xmlns="http://www.w3.org/2000/svg" width="18.51" height="18.51" viewBox="0 0 18.51 18.51"><path d="M11.255,10.329a4.627,4.627,0,0,1,4.627,4.627V20.51H14.031V14.957a2.777,2.777,0,0,0-2.614-2.772l-.163,0a2.777,2.777,0,0,0-2.772,2.614l0,.163V20.51H6.627V14.957a4.627,4.627,0,0,1,4.627-4.627ZM5.239,13.106a3.278,3.278,0,0,1,.75.087,5.5,5.5,0,0,0-.279,1.458l-.008.306v.08a1.381,1.381,0,0,0-.329-.074l-.133-.006a1.388,1.388,0,0,0-1.382,1.255l-.006.133V20.51H2V16.345a3.239,3.239,0,0,1,3.239-3.239Zm12.031,0a3.239,3.239,0,0,1,3.239,3.239V20.51H18.659V16.345A1.388,1.388,0,0,0,17.4,14.963l-.133-.006a1.4,1.4,0,0,0-.463.079v-.079a5.519,5.519,0,0,0-.286-1.762A3.165,3.165,0,0,1,17.271,13.106ZM5.239,7.553A2.314,2.314,0,1,1,2.925,9.867,2.314,2.314,0,0,1,5.239,7.553Zm12.031,0a2.314,2.314,0,1,1-2.314,2.314,2.314,2.314,0,0,1,2.314-2.314ZM5.239,9.4a.463.463,0,1,0,.463.463A.463.463,0,0,0,5.239,9.4Zm12.031,0a.463.463,0,1,0,.463.463A.463.463,0,0,0,17.271,9.4ZM11.255,2a3.7,3.7,0,1,1-3.7,3.7A3.7,3.7,0,0,1,11.255,2Zm0,1.851A1.851,1.851,0,1,0,13.106,5.7,1.851,1.851,0,0,0,11.255,3.851Z" transform="translate(-2 -2)" fill="#8b919b"/></svg>