<svg id="Component_46_1" data-name="Component 46 – 1" xmlns="http://www.w3.org/2000/svg" width="20.869" height="20.869" viewBox="0 0 20.869 20.869">
  <path id="Path_1588" data-name="Path 1588" d="M-14439.358-13489.585l4.952-3.871,1.105-3.31v-3.458l-.836-2.938-1.52-2.107-3.9-2.344h-5.722l-4.7,2.574-2.012,4.815.713,5.109,2.394,3.69,3.146,2.053Z" transform="translate(14453 13509)" fill="#e84d8a" opacity="0.678"/>
  <path id="Path_1587" data-name="Path 1587" d="M20.771,11.988a8.306,8.306,0,0,0-1.641-4.54,10.173,10.173,0,0,1-.96.908,13.729,13.729,0,0,1-3.457,2.1c.174.365.334.719.475,1.053v0q.06.14.115.282a20.028,20.028,0,0,1,4.859.105c.215.029.417.061.609.092ZM10.978,4.214A48.172,48.172,0,0,1,13.787,8.67a11.588,11.588,0,0,0,3.18-1.844,8.223,8.223,0,0,0,.831-.788,8.314,8.314,0,0,0-5.363-1.951,8.4,8.4,0,0,0-1.457.126Zm-6.627,6.13q1.066-.027,2.129-.128a32.9,32.9,0,0,0,5.073-.858Q10.247,7.089,8.736,4.948a8.366,8.366,0,0,0-4.385,5.4Zm1.6,7.344a14.893,14.893,0,0,1,1.643-1.982,13.172,13.172,0,0,1,5.38-3.433l.065-.019c-.172-.38-.334-.719-.5-1.038A31.4,31.4,0,0,1,6.594,12.3c-.981.089-1.86.127-2.507.134a8.313,8.313,0,0,0,1.862,5.251Zm9.623,2.483a37.509,37.509,0,0,0-1.7-5.957,13.23,13.23,0,0,0-5.04,3.191,10.2,10.2,0,0,0-1.374,1.727,8.36,8.36,0,0,0,8.117,1.041Zm1.954-1.122a8.346,8.346,0,0,0,3.117-5.082,12.737,12.737,0,0,0-1.3-.246,12.545,12.545,0,0,0-3.318-.034,41.078,41.078,0,0,1,1.5,5.363Zm-5.09,3.819A10.435,10.435,0,1,1,22.869,12.435,10.434,10.434,0,0,1,12.435,22.869Z" transform="translate(-2 -2)" fill="#c22562"/>
</svg>
