<svg xmlns="http://www.w3.org/2000/svg" width="17.743" height="17.743" viewBox="0 0 17.743 17.743"><path d="M14.253,9.391a2.406,2.406,0,0,1-.731-1.435L13.149,5.1,10.623,6.477a2.406,2.406,0,0,1-1.592.253L6.2,6.2,6.73,9.031a2.406,2.406,0,0,1-.253,1.592L5.1,13.149l2.853.373a2.406,2.406,0,0,1,1.435.731l1.979,2.089,1.236-2.6A2.406,2.406,0,0,1,13.743,12.6l2.6-1.236L14.253,9.391Zm.023,5.149-2.048,4.3a.555.555,0,0,1-.9.143l-3.278-3.46a.555.555,0,0,0-.33-.168l-4.727-.618a.555.555,0,0,1-.416-.815L4.852,9.737A.555.555,0,0,0,4.91,9.37L4.037,4.685a.555.555,0,0,1,.648-.648L9.37,4.91a.555.555,0,0,0,.366-.057l4.187-2.279a.555.555,0,0,1,.815.416l.618,4.726a.555.555,0,0,0,.168.33l3.46,3.278a.555.555,0,0,1-.143.9l-4.3,2.048a.555.555,0,0,0-.263.263Zm.738,1.783,1.309-1.309L20.25,18.94l-1.31,1.31-3.926-3.927Z" transform="translate(-2.506 -2.506)" fill="#8b919b"/></svg>