<svg id="logo-twitter" xmlns="http://www.w3.org/2000/svg" width="21.784" height="17.726" viewBox="0 0 21.784 17.726">
  <path id="logo-twitter-2" data-name="logo-twitter" d="M41.884,66.1a9.035,9.035,0,0,1-2.567.706,4.485,4.485,0,0,0,1.966-2.474,8.88,8.88,0,0,1-2.839,1.085,4.468,4.468,0,0,0-7.732,3.056,4.375,4.375,0,0,0,.115,1.02,12.665,12.665,0,0,1-9.214-4.676A4.478,4.478,0,0,0,23,70.79a4.365,4.365,0,0,1-2.031-.559v.055a4.473,4.473,0,0,0,3.587,4.385,4.5,4.5,0,0,1-1.177.157,4.217,4.217,0,0,1-.84-.083,4.476,4.476,0,0,0,4.178,3.107,8.96,8.96,0,0,1-5.553,1.916A9.058,9.058,0,0,1,20.1,79.7a12.492,12.492,0,0,0,6.841,2.022A12.64,12.64,0,0,0,39.668,68.995c0-.194,0-.388-.014-.577A9.1,9.1,0,0,0,41.884,66.1Z" transform="translate(-20.1 -64)" fill="#1da2f3"/>
</svg>
